<?xml version="1.0" encoding="UTF-8"?>
<svg width="100mm" height="100mm" version="1.1" viewBox="0 0 100 100" xmlns="http://www.w3.org/2000/svg">
 <circle cx="50.9" cy="47.87" r=".02958" stroke="#000" stroke-width=".2646"/>
 <path d="m7.11 27.36c0.5401-1.586 1.619-2.934 2.605-4.264 1.567-1.948 3.274-3.779 5.001-5.585 2.013-2.083 4.275-3.9 6.48-5.771 2.401-2.087 5.019-3.888 7.766-5.484-0.5895 0.3608-1.25 0.625-1.769 1.083-0.3212 0.2836 0.7721-0.3721 1.163-0.5478 1.33-0.5981 2.701-1.047 4.097-1.461 2.055-0.6422 4.188-0.8264 6.329-0.8464 1.931 0.01126 3.847 0.2635 5.769 0.4129 1.062 0.08254 2.127 0.1373 3.19 0.1975 3.081 0.148 6.166 0.1784 9.25 0.2184 2.346 0.03081 4.694-0.0215 7.037 0.1186 2.615 0.1675 4.671 1.525 6.725 3.025 2.143 1.657 4.271 3.357 6.209 5.256 0.462 0.4527 0.9034 0.9261 1.355 1.389 2.404 2.589 4.415 5.493 6.345 8.441 1.291 1.846 2.324 3.845 3.264 5.887 0.6872 1.6 1.414 3.188 1.941 4.85 0.3423 1.079 0.3601 1.284 0.599 2.384 0.4642 2.656 0.522 5.362 0.5607 8.051 0.0059 0.5355 0.01392 1.071 0.01775 1.606 0.0039 0.5461-0.015 1.093 0.0055 1.638 0.1016 2.698 0.5686 5.373 1.018 8.029 0.3813 2.531 0.9287 5.113 0.7459 7.69-0.09176 1.293-0.2835 1.868-0.5834 3.123-0.7114 2.81-2.018 5.401-3.162 8.047-0.7817 1.978-1.516 3.974-2.274 5.962-0.7905 2.083-1.689 4.121-2.635 6.138-0.6487 1.22-1.344 2.45-2.3 3.462-0.4544 0.4813-0.7735 0.7094-1.284 1.12-0.2401 0.1668-0.4735 0.3435-0.7202 0.5004-0.2665 0.1695-1.089 0.6411-0.8181 0.4781 0.7174-0.432 1.472-0.8061 2.159-1.285 0.3128-0.2182-0.6828 0.3402-1.03 0.4979-0.9548 0.4336-1.227 0.513-2.229 0.8839-2.725 0.9815-5.554 1.615-8.388 2.185-2.811 0.5815-5.66 0.9128-8.517 1.155-2.166 0.137-4.329 0.3073-6.491 0.4956-1.849 0.188-3.704 0.2725-5.562 0.2835-2.235 0.01476-4.444-0.2845-6.634-0.7062-2.483-0.5168-4.886-1.323-7.212-2.323-1.877-0.7728-3.581-1.859-5.228-3.031-1.79-1.309-3.432-2.795-5.065-4.289-1.623-1.483-2.899-3.262-4.149-5.055-1.299-1.926-2.611-3.848-3.725-5.888-0.7661-1.414-1.386-2.923-1.674-4.512-0.06094-0.3364-0.09358-0.6774-0.1404-1.016-0.2059-2.334 0.1015-4.655 0.5821-6.934 0.7245-3.37 1.966-6.592 3.301-9.76 1.314-2.917 2.683-5.808 4.026-8.712 0.8442-1.788 1.688-3.588 2.775-5.245 0.6494-0.9898 1.001-1.4 1.725-2.325 1.449-1.815 3.168-3.311 5.036-4.673 0.6437-0.4321 1.016-0.6944 1.675-1.091 0.2657-0.1598 1.073-0.6217 0.8073-0.4622-0.7837 0.4698-1.589 0.9042-2.361 1.393-0.227 0.1439 0.4807-0.2408 0.7237-0.3557 0.2462-0.1165 0.4957-0.2257 0.7435-0.3385 1.77-0.6695 3.55-1.313 5.335-1.941 1.694-0.6329 3.461-0.9443 5.247-1.161 2.272-0.2634 4.554-0.3884 6.84-0.4539 2.534-0.1258 5.052 0.1514 7.527 0.6771 2.099 0.4716 4.109 1.255 6.098 2.06 1.952 0.7317 3.729 1.801 5.381 3.058 1.138 0.8302 2.168 1.783 3.134 2.804 1.197 1.32 2.152 2.824 3.001 4.384 0.9488 1.489 1.544 3.125 1.971 4.827 0.4674 2.208 0.508 4.473 0.4278 6.719-0.09398 3.341-0.3094 6.635-0.7543 9.948-0.2816 1.661-0.6948 3.303-1.467 4.808-0.3515 0.6852-0.7889 1.356-1.195 2.008-1.291 1.957-2.86 3.702-4.467 5.401-1.313 1.352-2.845 2.446-4.417 3.472-1.06 0.615-3.855 2.474 0.9506-0.513 0.2352-0.1462-0.4908 0.2568-0.7408 0.376-0.7851 0.3745-0.8425 0.3775-1.648 0.683-1.752 0.6691-3.597 0.9365-5.454 1.095-2.149 0.1497-4.283-0.172-6.37-0.654-1.532-0.3791-2.973-1.019-4.3-1.869-0.7603-0.4871-1.177-0.8319-1.896-1.384-1.873-1.516-3.392-3.387-4.822-5.311-0.7897-1.114-2.522-1.27-2.968-2.57-0.2793-0.8136-0.3032-1.109-0.464-1.958-0.2795-2-0.3072-4.025-0.2476-6.039 0.04124-1.708 0.5067-3.328 1.093-4.916 0.525-1.489 1.607-2.63 2.702-3.724 1.107-1.143 2.392-2.063 3.676-2.989 1.053-0.7178 3.725-2.266-1.295 0.6873-0.2088 0.1228 0.4227-0.2366 0.634-0.355 0.8811-0.494 0.4009-0.2344 1.353-0.7297 1.284-0.668 2.639-1.141 4.057-1.414 1.124-0.1784 2.266-0.2074 3.402-0.1866 1.241 0.01439 2.335 0.5136 3.353 1.182 0.895 0.6194 1.12 1.374 1.279 2.398 0.2145 1.349-0.2841 2.586-0.846 3.781-0.6048 1.253-1.463 2.331-2.37 3.372-0.7882 0.8914-1.681 1.652-2.719 2.232 5.212-3.002 3.402-1.713 2.049-1.456-0.4244 0.08048-0.8538 0.1023-1.284 0.1211-0.7339 0.03128-1.464 0.0067-2.194-0.07664-0.6063-0.06422-1.051-0.4374-1.344-0.952-0.2299-0.5292-0.1927-1.115-0.2549-1.677-0.08506-0.6743-0.1282-1.346-0.06688-2.023 0.07668-0.7076 0.5023-1.251 0.9863-1.741 3.086-2.553-0.6227-0.0027-1.645 0.5919 0.3669-0.1892 0.7668-0.2501 1.173-0.2716 0.3395-0.01797 0.6802 0.01707 1.019-0.01368 0.2251-0.03344 0.1909-0.05812 0.2136 0.1864 0.01783 0.2997 0.0096 0.6002 0.0076 0.9003 1.29 2.446 2.704-1.452-1.122 1.436-0.9682-0.06712-0.08061 0.2905 0.8086 0.1661 1.676-0.7129 3.783-0.7529 3.826-2.512-0.0035-0.2922-5e-3 -0.5844-7.93e-4 -0.8766 0.0026-0.3195 0.0076-0.6402-0.02553-0.9584-0.0559-0.3071-0.1786-0.6549-0.5368-0.6865-0.338 0.02606-0.672 0.07176-1.015 0.0386-0.4414 7.94e-4 -0.8857 0.01487-1.306 0.1685-2.255 1.276-3.536 1.617-4.97 3.336-0.4603 0.5822-0.8396 1.213-0.8855 1.975-0.03026 0.6933 0.04213 1.379 0.1074 2.069 0.03751 0.6237 0.02085 1.268 0.3154 1.838 0.3356 0.5693 0.889 1.121 1.556 1.249 0.7505 0.07419 1.499 0.1524 2.254 0.1012 2.672-0.08653 2.906-0.4605 5.897-2.309 0.986-0.6394 1.85-1.43 2.616-2.322 0.895-1.068 1.71-2.197 2.31-3.461 0.5495-1.27 1.003-2.592 0.7974-3.996-0.1571-1.138-0.4616-1.989-1.444-2.672-1.056-0.6927-2.205-1.276-3.492-1.337-1.147-0.05609-2.301-0.05206-3.439 0.1124-1.457 0.2626-2.858 0.7068-4.183 1.378-0.6741 0.3263-1.328 0.6796-1.977 1.052-1.697 0.9741-3.446 1.884-5.047 3.018-1.283 0.925-2.537 1.889-3.632 3.038-1.108 1.137-2.164 2.335-2.654 3.879-0.5576 1.616-0.9816 3.274-0.9891 4.997-0.02569 2.032 1.006 3.066 1.293 5.08 0.1394 0.7399 0.221 1.328 0.4707 2.042 0.4635 1.324 1.296 2.489 2.126 3.602 1.451 1.947 2.955 3.867 4.862 5.397 1.916 1.524 3.855 2.762 6.25 3.399 2.088 0.531 4.242 0.8538 6.402 0.7708 1.86-0.1307 3.717-0.3376 5.48-0.9895 0.721-0.2563 0.9606-0.3248 1.658-0.6395 2.136-0.9633 4.111-2.255 6.09-3.502 1.549-1.041 3.049-2.161 4.33-3.529 1.57-1.713 3.088-3.48 4.362-5.429 0.5138-0.8141 0.8023-1.214 1.21-2.071 0.7224-1.517 1.064-3.159 1.25-4.821 0.3246-3.349 0.6178-6.701 0.8985-10.05 0.06042-2.291 0.0088-4.598-0.3772-6.862-0.4618-1.718-1.027-3.416-2.024-4.908-0.9149-1.546-1.837-3.104-2.964-4.507-0.9761-1.058-2.068-1.995-3.253-2.813-1.726-1.202-3.502-2.342-5.474-3.104-2.02-0.8081-4.052-1.629-6.188-2.075-2.5-0.5139-5.045-0.866-7.604-0.7232-2.237 0.05953-4.476 0.1078-6.706 0.3147-1.834 0.2133-3.649 0.5155-5.388 1.171-1.763 0.591-3.511 1.229-5.265 1.845-2.757 1.21-5.354 2.772-7.832 4.476-1.818 1.36-3.485 2.895-4.866 4.709-0.7743 1.025-0.9767 1.249-1.67 2.343-1.079 1.701-1.947 3.522-2.846 5.32-1.296 2.838-2.454 5.736-3.728 8.584-1.423 3.224-2.772 6.504-3.556 9.952-0.09563 0.4335-0.2036 0.8644-0.2869 1.3-0.3631 1.901-0.4624 3.861-0.3309 5.789 0.04606 0.3512 0.07651 0.7048 0.1382 1.054 0.2887 1.633 0.9431 3.157 1.73 4.607 1.223 1.985 2.527 3.919 3.766 5.893 1.224 1.842 2.605 3.578 4.196 5.121 1.619 1.53 3.318 2.977 5.096 4.32 1.642 1.227 3.323 2.391 5.262 3.109 2.38 0.9702 4.829 1.755 7.338 2.32 2.175 0.4754 4.319 0.8981 6.56 0.8445 1.855 0.02979 3.715-0.04353 5.561-0.238 2.203-0.2245 4.408-0.4392 6.617-0.5918 2.882-0.2622 5.758-0.5743 8.595-1.166 2.808-0.5585 5.62-1.14 8.331-2.078 1.092-0.3766 2.22-0.748 3.239-1.302 1.358-0.7374 2.697-1.509 4.038-2.277 0.7829-0.4488 0.8541-0.5302 1.565-1.05 0.5078-0.4438 0.7893-0.6595 1.237-1.178 0.8948-1.037 1.523-2.281 2.145-3.489 0.9447-2.056 1.923-4.1 2.734-6.214 0.7182-1.958 1.386-3.933 2.139-5.878 1.161-2.629 2.326-5.264 3.04-8.06 0.2692-1.205 0.4924-1.951 0.5436-3.194 0.04785-1.162-0.126-2.218-0.2951-3.364-0.1199-0.8131-0.5615-3.508-0.6834-4.257-0.2998-2.084-0.6085-4.168-0.7338-6.273-0.07857-1.319-0.0587-2.156-0.05574-3.46 0.0013-0.54 0.0027-1.08 0.0041-1.62-0.01947-2.728 0.04423-5.481-0.4884-8.171-0.245-1.071-0.2862-1.366-0.633-2.415-0.5494-1.662-1.287-3.256-1.979-4.86-0.9108-2.082-1.779-4.216-3.274-5.961-2.178-2.797-4.242-5.686-6.588-8.349-0.4372-0.4788-0.8607-0.9705-1.312-1.437-1.887-1.951-4.013-3.664-6.125-5.359-2.023-1.496-4.106-3.064-6.698-3.29-2.389-0.1204-4.781-0.027-7.172-0.04273-3.1 0.00832-6.202-0.00796-9.3-0.1609-1.552-0.08742-3.099-0.1966-4.647-0.3432-0.01132-0.00108-2.853-0.2856-2.901-0.2892-0.4377-0.03389-0.8767-0.04701-1.315-0.07052-0.8424-0.01325-1.555-0.04148-2.394 0.00986-1.328 0.08127-2.643 0.3439-3.923 0.6973-1.042 0.3104-2.091 0.6189-3.104 1.015-2.272 0.8872-4.388 2.115-6.476 3.364-2.717 1.62-5.299 3.451-7.697 5.519-2.246 1.888-4.537 3.739-6.578 5.853-1.726 1.826-3.453 3.659-5.009 5.634-1.065 1.435-2.137 2.875-2.936 4.481l3.59-1.624z" fill="#888"/>
</svg>
